<svg width="698" height="596" viewBox="0 0 698 596" fill="none" xmlns="http://www.w3.org/2000/svg">
<path d="M38.8411 468.312C27.2884 464.588 27.2884 448.243 38.8411 444.518L408.678 325.287C424.538 320.173 441.605 320.173 457.465 325.287L827.302 444.518C838.854 448.243 838.854 464.588 827.302 468.312L457.465 587.544C441.605 592.658 424.538 592.658 408.678 587.544L38.8411 468.312Z" fill="#042420" stroke="url(#paint0_linear_1123_4022)"/>
<path d="M38.8411 404.946C27.2884 401.222 27.2884 384.877 38.8411 381.152L408.678 261.92C424.538 256.807 441.605 256.807 457.465 261.92L827.302 381.152C838.854 384.877 838.854 401.222 827.302 404.946L457.465 524.178C441.605 529.291 424.538 529.291 408.678 524.178L38.8411 404.946Z" fill="#042420" stroke="url(#paint1_linear_1123_4022)"/>
<path d="M38.8411 341.58C27.2884 337.856 27.2884 321.51 38.8411 317.786L408.678 198.554C424.538 193.441 441.605 193.441 457.465 198.554L827.302 317.786C838.854 321.51 838.854 337.856 827.302 341.58L457.465 460.812C441.605 465.925 424.538 465.925 408.678 460.812L38.8411 341.58Z" fill="#042420" stroke="url(#paint2_linear_1123_4022)"/>
<path d="M38.8411 278.214C27.2884 274.489 27.2884 258.144 38.8411 254.42L408.678 135.188C424.538 130.075 441.605 130.075 457.465 135.188L827.302 254.42C838.854 258.144 838.854 274.489 827.302 278.214L457.465 397.446C441.605 402.559 424.538 402.559 408.678 397.446L38.8411 278.214Z" fill="#042420" stroke="url(#paint3_linear_1123_4022)"/>
<path d="M38.8411 214.848C27.2884 211.123 27.2884 194.778 38.8411 191.054L408.678 71.8218C424.538 66.7085 441.605 66.7085 457.465 71.8218L827.302 191.054C838.854 194.778 838.854 211.123 827.302 214.848L457.465 334.079C441.605 339.193 424.538 339.193 408.678 334.079L38.8411 214.848Z" fill="#042420" stroke="url(#paint4_linear_1123_4022)"/>
<path d="M38.8411 151.481C27.2884 147.757 27.2884 131.412 38.8411 127.687L408.678 8.45554C424.538 3.34226 441.605 3.34227 457.465 8.45555L827.302 127.687C838.854 131.412 838.854 147.757 827.302 151.481L457.465 270.713C441.605 275.826 424.538 275.826 408.678 270.713L38.8411 151.481Z" fill="#042420" stroke="url(#paint5_linear_1123_4022)"/>
<g filter="url(#filter0_d_1123_4022)">
<rect x="83.0713" y="478.705" width="20" height="20" rx="10" fill="#15FF81"/>
</g>
<g filter="url(#filter1_d_1123_4022)">
<rect x="560.071" y="352.705" width="20" height="20" rx="10" fill="#15FF81"/>
</g>
<g filter="url(#filter2_d_1123_4022)">
<rect x="699.071" y="180.165" width="20" height="20" rx="10" fill="#15FF81"/>
</g>
<g filter="url(#filter3_d_1123_4022)">
<rect x="174.071" y="190.165" width="20" height="20" rx="10" fill="#15FF81"/>
</g>
<defs>
<filter id="filter0_d_1123_4022" x="69.0713" y="464.705" width="48" height="48" filterUnits="userSpaceOnUse" color-interpolation-filters="sRGB">
<feFlood flood-opacity="0" result="BackgroundImageFix"/>
<feColorMatrix in="SourceAlpha" type="matrix" values="0 0 0 0 0 0 0 0 0 0 0 0 0 0 0 0 0 0 127 0" result="hardAlpha"/>
<feOffset/>
<feGaussianBlur stdDeviation="7"/>
<feComposite in2="hardAlpha" operator="out"/>
<feColorMatrix type="matrix" values="0 0 0 0 0.235294 0 0 0 0 0.956863 0 0 0 0 0.403922 0 0 0 0.8 0"/>
<feBlend mode="normal" in2="BackgroundImageFix" result="effect1_dropShadow_1123_4022"/>
<feBlend mode="normal" in="SourceGraphic" in2="effect1_dropShadow_1123_4022" result="shape"/>
</filter>
<filter id="filter1_d_1123_4022" x="546.071" y="338.705" width="48" height="48" filterUnits="userSpaceOnUse" color-interpolation-filters="sRGB">
<feFlood flood-opacity="0" result="BackgroundImageFix"/>
<feColorMatrix in="SourceAlpha" type="matrix" values="0 0 0 0 0 0 0 0 0 0 0 0 0 0 0 0 0 0 127 0" result="hardAlpha"/>
<feOffset/>
<feGaussianBlur stdDeviation="7"/>
<feComposite in2="hardAlpha" operator="out"/>
<feColorMatrix type="matrix" values="0 0 0 0 0.235294 0 0 0 0 0.956863 0 0 0 0 0.403922 0 0 0 0.8 0"/>
<feBlend mode="normal" in2="BackgroundImageFix" result="effect1_dropShadow_1123_4022"/>
<feBlend mode="normal" in="SourceGraphic" in2="effect1_dropShadow_1123_4022" result="shape"/>
</filter>
<filter id="filter2_d_1123_4022" x="685.071" y="166.165" width="48" height="48" filterUnits="userSpaceOnUse" color-interpolation-filters="sRGB">
<feFlood flood-opacity="0" result="BackgroundImageFix"/>
<feColorMatrix in="SourceAlpha" type="matrix" values="0 0 0 0 0 0 0 0 0 0 0 0 0 0 0 0 0 0 127 0" result="hardAlpha"/>
<feOffset/>
<feGaussianBlur stdDeviation="7"/>
<feComposite in2="hardAlpha" operator="out"/>
<feColorMatrix type="matrix" values="0 0 0 0 0.235294 0 0 0 0 0.956863 0 0 0 0 0.403922 0 0 0 0.8 0"/>
<feBlend mode="normal" in2="BackgroundImageFix" result="effect1_dropShadow_1123_4022"/>
<feBlend mode="normal" in="SourceGraphic" in2="effect1_dropShadow_1123_4022" result="shape"/>
</filter>
<filter id="filter3_d_1123_4022" x="160.071" y="176.165" width="48" height="48" filterUnits="userSpaceOnUse" color-interpolation-filters="sRGB">
<feFlood flood-opacity="0" result="BackgroundImageFix"/>
<feColorMatrix in="SourceAlpha" type="matrix" values="0 0 0 0 0 0 0 0 0 0 0 0 0 0 0 0 0 0 127 0" result="hardAlpha"/>
<feOffset/>
<feGaussianBlur stdDeviation="7"/>
<feComposite in2="hardAlpha" operator="out"/>
<feColorMatrix type="matrix" values="0 0 0 0 0.235294 0 0 0 0 0.956863 0 0 0 0 0.403922 0 0 0 0.8 0"/>
<feBlend mode="normal" in2="BackgroundImageFix" result="effect1_dropShadow_1123_4022"/>
<feBlend mode="normal" in="SourceGraphic" in2="effect1_dropShadow_1123_4022" result="shape"/>
</filter>
<linearGradient id="paint0_linear_1123_4022" x1="0.309081" y1="456.415" x2="837.452" y2="456.415" gradientUnits="userSpaceOnUse">
<stop stop-color="#B5F0E5" stop-opacity="0.7"/>
<stop offset="1" stop-color="#B5F0E5" stop-opacity="0.25"/>
</linearGradient>
<linearGradient id="paint1_linear_1123_4022" x1="0.309081" y1="393.049" x2="837.452" y2="393.049" gradientUnits="userSpaceOnUse">
<stop stop-color="#B5F0E5" stop-opacity="0.7"/>
<stop offset="1" stop-color="#B5F0E5" stop-opacity="0.25"/>
</linearGradient>
<linearGradient id="paint2_linear_1123_4022" x1="0.309081" y1="329.683" x2="837.452" y2="329.683" gradientUnits="userSpaceOnUse">
<stop stop-color="#B5F0E5" stop-opacity="0.7"/>
<stop offset="1" stop-color="#B5F0E5" stop-opacity="0.25"/>
</linearGradient>
<linearGradient id="paint3_linear_1123_4022" x1="0.309081" y1="266.317" x2="837.452" y2="266.317" gradientUnits="userSpaceOnUse">
<stop stop-color="#B5F0E5" stop-opacity="0.7"/>
<stop offset="1" stop-color="#B5F0E5" stop-opacity="0.25"/>
</linearGradient>
<linearGradient id="paint4_linear_1123_4022" x1="0.309081" y1="202.951" x2="837.452" y2="202.951" gradientUnits="userSpaceOnUse">
<stop stop-color="#B5F0E5" stop-opacity="0.7"/>
<stop offset="1" stop-color="#B5F0E5" stop-opacity="0.25"/>
</linearGradient>
<linearGradient id="paint5_linear_1123_4022" x1="0.309081" y1="139.584" x2="837.452" y2="139.584" gradientUnits="userSpaceOnUse">
<stop stop-color="#B5F0E5" stop-opacity="0.7"/>
<stop offset="1" stop-color="#B5F0E5" stop-opacity="0.25"/>
</linearGradient>
</defs>
</svg>
