<svg width="202" height="29" viewBox="0 0 202 29" fill="none" xmlns="http://www.w3.org/2000/svg">
<path d="M29.3154 21.6745V2.50488H36.9504C38.6712 2.50488 39.993 2.99489 40.9184 3.97491C41.8437 4.95492 42.3063 6.29504 42.3063 7.99753C42.3063 9.70003 41.8437 11.0424 40.9184 12.0202C39.993 13.0002 38.6712 13.4902 36.9504 13.4902H31.6219V21.6745H29.3154ZM31.6219 11.4572H36.9504C37.8666 11.4572 38.5754 11.2202 39.0791 10.7439C39.5828 10.2675 39.8335 9.59063 39.8335 8.71089V7.28189C39.8335 6.40216 39.5805 5.72526 39.0791 5.24893C38.5754 4.77259 37.8666 4.53557 36.9504 4.53557H31.6219V11.4572Z" fill="#B5F0E5"/>
<path d="M45.4624 21.6744V7.50293H47.6595V10.1125H47.7962C48.0515 9.43561 48.5096 8.83165 49.1682 8.30062C49.8269 7.76959 50.734 7.50521 51.8872 7.50521H52.7396V9.70227H51.4496C50.2599 9.70227 49.33 9.92562 48.6623 10.3746C47.9945 10.8236 47.6595 11.3865 47.6595 12.0634V21.6744H45.4624Z" fill="#B5F0E5"/>
<path d="M65.7305 21.6742C64.9077 21.6742 64.3152 21.4555 63.9596 21.0156C63.6018 20.5757 63.3785 20.0264 63.2873 19.3678H63.1506C62.8383 20.2475 62.3255 20.9062 61.6122 21.3461C60.8988 21.7859 60.0464 22.0047 59.0573 22.0047C57.5553 22.0047 56.3884 21.6195 55.5566 20.8515C54.7224 20.0834 54.3076 19.0396 54.3076 17.72C54.3076 16.4004 54.7976 15.3588 55.7776 14.6432C56.7577 13.9298 58.2801 13.572 60.3495 13.572H63.1506V12.1704C63.1506 11.163 62.8748 10.3949 62.3255 9.86391C61.7763 9.33288 60.933 9.0685 59.798 9.0685C58.9365 9.0685 58.2186 9.25994 57.642 9.64511C57.0653 10.0303 56.5844 10.5431 56.1993 11.1835L54.882 9.94823C55.2671 9.18018 55.8802 8.52379 56.7212 7.98364C57.5622 7.4435 58.6242 7.17456 59.9074 7.17456C61.6281 7.17456 62.966 7.59392 63.9163 8.43491C64.869 9.2759 65.3453 10.4451 65.3453 11.9425V19.7256H66.9658V21.6765H65.7305V21.6742ZM59.4151 20.1358C59.9644 20.1358 60.468 20.072 60.9261 19.9444C61.3842 19.8168 61.7785 19.6322 62.1067 19.3951C62.4372 19.1581 62.6925 18.8823 62.8748 18.5724C63.0571 18.2601 63.1506 17.9228 63.1506 17.5559V15.2221H60.2401C58.9775 15.2221 58.0568 15.4044 57.4801 15.7714C56.9035 16.1383 56.6141 16.6693 56.6141 17.3645V17.9411C56.6141 18.6362 56.8648 19.1763 57.3685 19.5615C57.8721 19.9467 58.5536 20.1381 59.4151 20.1381V20.1358Z" fill="#B5F0E5"/>
<path d="M82.0422 23.2541C82.0422 24.7127 81.4702 25.7862 80.326 26.4699C79.1819 27.1536 77.4658 27.4955 75.1775 27.4955C72.8893 27.4955 71.3691 27.1924 70.3982 26.5907C69.4273 25.9867 68.9419 25.1275 68.9419 24.013C68.9419 23.245 69.1425 22.6455 69.5459 22.2171C69.9493 21.7863 70.4985 21.4718 71.1937 21.2712V20.9704C70.3504 20.5693 69.931 19.9129 69.931 19.0013C69.931 18.2902 70.1589 17.7477 70.617 17.374C71.0751 17.0002 71.6609 16.7222 72.3742 16.5398V16.4304C71.531 16.027 70.8769 15.4481 70.4096 14.696C69.9424 13.9439 69.71 13.071 69.71 12.0796C69.71 11.364 69.8376 10.703 70.0951 10.0968C70.3504 9.49054 70.7128 8.97319 71.18 8.54015C71.6472 8.1094 72.2056 7.77437 72.8551 7.53507C73.5047 7.29576 74.2317 7.17725 75.0385 7.17725C76.0459 7.17725 76.9416 7.35958 77.7301 7.72651V7.48037C77.7301 6.92427 77.8578 6.46617 78.1153 6.10379C78.3706 5.74141 78.7922 5.55908 79.3779 5.55908H81.4929V7.51H78.8013V8.41936C79.3141 8.86151 79.713 9.38798 79.9956 10.0033C80.2782 10.6187 80.4218 11.3115 80.4218 12.0819C80.4218 12.7975 80.2941 13.4585 80.0366 14.0647C79.779 14.671 79.419 15.1906 78.9517 15.6213C78.4845 16.0521 77.9216 16.3871 77.2629 16.6264C76.6043 16.8657 75.8704 16.9842 75.0659 16.9842C74.6078 16.9842 74.1497 16.9387 73.6938 16.8475C73.2175 16.9751 72.7867 17.1643 72.4039 17.4104C72.0187 17.6566 71.8272 18.0007 71.8272 18.4406C71.8272 18.8805 72.0278 19.1448 72.4312 19.293C72.8346 19.4388 73.3565 19.5118 73.997 19.5118H77.0168C78.774 19.5118 80.0525 19.8445 80.8479 20.51C81.6434 21.1755 82.0422 22.0917 82.0422 23.2609V23.2541ZM79.9819 23.4045C79.9819 22.837 79.7654 22.3835 79.3369 22.0461C78.9061 21.7066 78.1426 21.5379 77.0441 21.5379H72.3195C71.4398 21.9413 71.0022 22.5817 71.0022 23.4615C71.0022 24.0837 71.2347 24.6147 71.7019 25.0546C72.1691 25.4944 72.96 25.7132 74.0767 25.7132H76.1097C77.3359 25.7132 78.2885 25.5218 78.9654 25.1366C79.6423 24.7514 79.9819 24.1748 79.9819 23.4068V23.4045ZM75.0659 15.2202C76.0003 15.2202 76.741 14.9946 77.2903 14.5456C77.8395 14.0943 78.1153 13.4015 78.1153 12.4625V11.6899C78.1153 10.7532 77.8395 10.058 77.2903 9.60678C76.741 9.15551 76.0003 8.93216 75.0659 8.93216C74.1314 8.93216 73.3907 9.15779 72.8414 9.60678C72.2922 10.058 72.0164 10.7509 72.0164 11.6899V12.4625C72.0164 13.4015 72.2922 14.0943 72.8414 14.5456C73.3907 14.9969 74.1314 15.2202 75.0659 15.2202Z" fill="#B5F0E5"/>
<path d="M84.5981 21.6742V7.50275H86.7952V9.78414H86.9046C87.0687 9.42176 87.2579 9.08217 87.4675 8.76538C87.6772 8.44858 87.9348 8.17281 88.2356 7.93578C88.5387 7.70103 88.8897 7.51415 89.2931 7.3774C89.6965 7.24065 90.1728 7.17456 90.7221 7.17456C91.6565 7.17456 92.5158 7.39791 93.3043 7.84234C94.0906 8.28677 94.6764 9.01836 95.0615 10.0348H95.1162C95.3715 9.27362 95.8524 8.60584 96.5589 8.03378C97.2631 7.46173 98.2204 7.17684 99.4283 7.17684C100.876 7.17684 102.006 7.64861 102.82 8.59217C103.633 9.53572 104.041 10.8667 104.041 12.5874V21.6765H101.844V12.9498C101.844 11.6849 101.598 10.73 101.103 10.0873C100.609 9.44455 99.8226 9.1232 98.7423 9.1232C98.3024 9.1232 97.8853 9.1779 97.4933 9.28957C97.099 9.39897 96.7481 9.56534 96.4358 9.78414C96.1236 10.0052 95.8774 10.2833 95.6951 10.6229C95.5128 10.9624 95.4193 11.3613 95.4193 11.8194V21.672H93.2223V12.9498C93.2223 11.6849 92.9761 10.73 92.4816 10.0873C91.987 9.44455 91.219 9.1232 90.1751 9.1232C89.7353 9.1232 89.3136 9.1779 88.9125 9.28957C88.5091 9.39897 88.1536 9.56534 87.8413 9.78414C87.5291 10.0052 87.2784 10.2833 87.0869 10.6229C86.8955 10.9624 86.7975 11.3613 86.7975 11.8194V21.672H84.6004L84.5981 21.6742Z" fill="#B5F0E5"/>
<path d="M118.871 21.6745C118.048 21.6745 117.455 21.4557 117.1 21.0158C116.742 20.576 116.519 20.0267 116.427 19.368H116.291C115.978 20.2478 115.466 20.9064 114.752 21.3463C114.039 21.7862 113.187 22.005 112.197 22.005C110.695 22.005 109.529 21.6198 108.697 20.8517C107.863 20.0837 107.448 19.0398 107.448 17.7202C107.448 16.4006 107.938 15.3591 108.918 14.6434C109.898 13.9301 111.42 13.5723 113.49 13.5723H116.291V12.1706C116.291 11.1632 116.015 10.3952 115.466 9.86415C114.916 9.33312 114.073 9.06874 112.938 9.06874C112.077 9.06874 111.359 9.26019 110.782 9.64536C110.205 10.0305 109.725 10.5433 109.339 11.1838L108.022 9.94848C108.407 9.18042 109.02 8.52404 109.861 7.98389C110.702 7.44374 111.764 7.1748 113.048 7.1748C114.768 7.1748 116.106 7.59416 117.056 8.43515C118.009 9.27614 118.485 10.4453 118.485 11.9427V19.7259H120.106V21.6768H118.871V21.6745ZM112.555 20.1361C113.104 20.1361 113.608 20.0723 114.066 19.9446C114.524 19.817 114.919 19.6324 115.247 19.3954C115.577 19.1584 115.833 18.8826 116.015 18.5726C116.197 18.2604 116.291 17.9231 116.291 17.5561V15.2223H113.38C112.118 15.2223 111.197 15.4047 110.62 15.7716C110.044 16.1385 109.754 16.6696 109.754 17.3647V17.9413C109.754 18.6364 110.005 19.1766 110.509 19.5618C111.012 19.9469 111.694 20.1384 112.555 20.1384V20.1361Z" fill="#B5F0E5"/>
<path d="M19.8928 6.12329C20.1031 6.53962 20.2245 7.00583 20.2245 7.50239V17.5832C20.2245 19.2746 18.8498 20.6494 17.1584 20.6494H7.07539C6.57882 20.6494 6.11045 20.5279 5.69629 20.3176C6.20152 21.3172 7.23585 22.0046 8.43063 22.0046H18.5115C20.2028 22.0046 21.5776 20.6298 21.5776 18.9385V8.85763C21.5776 7.66285 20.8902 6.62853 19.8906 6.12329H19.8928Z" fill="#B5F0E5"/>
<path d="M15.8684 19.4958C17.5598 19.4958 18.9345 18.121 18.9345 16.4296V6.34662C18.9345 6.16447 18.915 5.98883 18.8847 5.81536C18.8153 5.42505 18.6743 5.06076 18.4727 4.7355C18.1756 4.25629 17.7528 3.86598 17.2475 3.61011C17.382 3.87465 17.4774 4.15871 17.5294 4.46012C17.5598 4.63359 17.5793 4.80923 17.5793 4.99137V15.0722C17.5793 16.7636 16.2045 18.1383 14.5132 18.1383H4.43232C4.30655 18.1383 4.18079 18.1275 4.05936 18.1123C3.70157 18.069 3.3633 17.9627 3.05322 17.8066C3.35897 18.4116 3.85986 18.8994 4.47135 19.1922C4.76408 19.331 5.08067 19.4264 5.4146 19.4676C5.5382 19.4827 5.6618 19.4936 5.78757 19.4936H15.8684V19.4958Z" fill="#B5F0E5"/>
<path d="M4.00936 17.078H13.1491C14.8405 17.078 16.2152 15.7033 16.2152 14.0119V3.9289C16.2152 3.71206 16.1914 3.49956 16.148 3.29356C16.0591 2.86856 15.8791 2.47825 15.6341 2.13998C15.0768 1.36803 14.1726 0.862793 13.1491 0.862793H3.06611C1.37476 0.862793 0 2.23755 0 3.9289V14.0119C0 15.3065 0.80881 16.4145 1.94722 16.8634C2.21176 16.9674 2.49365 17.0368 2.78855 17.0629C2.87963 17.0715 2.97287 17.078 3.06828 17.078H4.01153H4.00936ZM14.4176 14.0119C14.4176 14.7123 13.8474 15.2826 13.147 15.2826H6.85212V10.8287C6.85212 9.13738 8.22688 7.76262 9.91823 7.76262H14.4176V14.0119ZM14.4176 6.40737H8.56298C6.87164 6.40737 5.49687 7.78213 5.49687 9.47348V15.2826H4.20885V8.31773C4.20885 6.62638 5.58361 5.25162 7.27496 5.25162H14.4176V6.40737ZM2.72133 15.2327C2.18791 15.0809 1.7976 14.5931 1.7976 14.0119V3.9289C1.7976 3.22851 2.36788 2.65822 3.06828 2.65822H13.1491C13.6132 2.65822 14.0165 2.90759 14.2398 3.27838C14.3483 3.46053 14.4133 3.66869 14.4176 3.89421H5.91971C4.22836 3.89421 2.8536 5.26897 2.8536 6.96031V15.2587C2.80807 15.2501 2.7647 15.2414 2.72133 15.2284V15.2327Z" fill="#B5F0E5"/>
<path d="M126.993 3.2436H133.311C134.481 3.2436 135.543 3.4416 136.497 3.8376C137.451 4.2336 138.261 4.8276 138.927 5.6196C139.611 6.3936 140.133 7.3746 140.493 8.5626C140.853 9.7326 141.033 11.1006 141.033 12.6666C141.033 14.2326 140.853 15.6096 140.493 16.7976C140.133 17.9676 139.611 18.9486 138.927 19.7406C138.261 20.5146 137.451 21.0996 136.497 21.4956C135.543 21.8916 134.481 22.0896 133.311 22.0896H126.993V3.2436ZM133.311 20.0916C134.085 20.0916 134.796 19.9656 135.444 19.7136C136.092 19.4436 136.65 19.0566 137.118 18.5526C137.586 18.0486 137.946 17.4366 138.198 16.7166C138.468 15.9786 138.603 15.1416 138.603 14.2056V11.1276C138.603 10.1916 138.468 9.3636 138.198 8.6436C137.946 7.9056 137.586 7.2846 137.118 6.7806C136.65 6.2766 136.092 5.8986 135.444 5.6466C134.796 5.3766 134.085 5.2416 133.311 5.2416H129.261V20.0916H133.311ZM150.427 22.4136C149.491 22.4136 148.636 22.2426 147.862 21.9006C147.088 21.5586 146.422 21.0726 145.864 20.4426C145.324 19.7946 144.901 19.0296 144.595 18.1476C144.289 17.2476 144.136 16.2396 144.136 15.1236C144.136 14.0256 144.289 13.0266 144.595 12.1266C144.901 11.2266 145.324 10.4616 145.864 9.8316C146.422 9.1836 147.088 8.6886 147.862 8.3466C148.636 8.0046 149.491 7.8336 150.427 7.8336C151.363 7.8336 152.209 8.0046 152.965 8.3466C153.739 8.6886 154.405 9.1836 154.963 9.8316C155.521 10.4616 155.953 11.2266 156.259 12.1266C156.565 13.0266 156.718 14.0256 156.718 15.1236C156.718 16.2396 156.565 17.2476 156.259 18.1476C155.953 19.0296 155.521 19.7946 154.963 20.4426C154.405 21.0726 153.739 21.5586 152.965 21.9006C152.209 22.2426 151.363 22.4136 150.427 22.4136ZM150.427 20.4966C151.597 20.4966 152.551 20.1366 153.289 19.4166C154.027 18.6966 154.396 17.5986 154.396 16.1226V14.1246C154.396 12.6486 154.027 11.5506 153.289 10.8306C152.551 10.1106 151.597 9.7506 150.427 9.7506C149.257 9.7506 148.303 10.1106 147.565 10.8306C146.827 11.5506 146.458 12.6486 146.458 14.1246V16.1226C146.458 17.5986 146.827 18.6966 147.565 19.4166C148.303 20.1366 149.257 20.4966 150.427 20.4966ZM165.724 22.4136C164.752 22.4136 163.879 22.2426 163.105 21.9006C162.331 21.5586 161.674 21.0726 161.134 20.4426C160.612 19.8126 160.207 19.0476 159.919 18.1476C159.649 17.2476 159.514 16.2396 159.514 15.1236C159.514 14.0076 159.649 12.9996 159.919 12.0996C160.207 11.1996 160.612 10.4346 161.134 9.8046C161.674 9.1746 162.331 8.6886 163.105 8.3466C163.879 8.0046 164.752 7.8336 165.724 7.8336C167.11 7.8336 168.217 8.1396 169.045 8.7516C169.891 9.3456 170.521 10.1286 170.935 11.1006L169.126 12.0186C168.874 11.2986 168.46 10.7406 167.884 10.3446C167.308 9.9486 166.588 9.7506 165.724 9.7506C165.076 9.7506 164.509 9.8586 164.023 10.0746C163.537 10.2726 163.132 10.5606 162.808 10.9386C162.484 11.2986 162.241 11.7396 162.079 12.2616C161.917 12.7656 161.836 13.3236 161.836 13.9356V16.3116C161.836 17.5356 162.16 18.5436 162.808 19.3356C163.474 20.1096 164.446 20.4966 165.724 20.4966C167.47 20.4966 168.73 19.6866 169.504 18.0666L171.07 19.1196C170.62 20.1276 169.945 20.9286 169.045 21.5226C168.163 22.1166 167.056 22.4136 165.724 22.4136ZM178.574 22.4136C177.278 22.4136 176.189 22.1706 175.307 21.6846C174.443 21.1806 173.696 20.5146 173.066 19.6866L174.605 18.4446C175.145 19.1286 175.748 19.6596 176.414 20.0376C177.08 20.3976 177.854 20.5776 178.736 20.5776C179.654 20.5776 180.365 20.3796 180.869 19.9836C181.391 19.5876 181.652 19.0296 181.652 18.3096C181.652 17.7696 181.472 17.3106 181.112 16.9326C180.77 16.5366 180.14 16.2666 179.222 16.1226L178.115 15.9606C177.467 15.8706 176.873 15.7356 176.333 15.5556C175.793 15.3576 175.316 15.1056 174.902 14.7996C174.506 14.4756 174.191 14.0796 173.957 13.6116C173.741 13.1436 173.633 12.5856 173.633 11.9376C173.633 11.2536 173.759 10.6596 174.011 10.1556C174.263 9.6336 174.605 9.2016 175.037 8.8596C175.487 8.5176 176.018 8.2656 176.63 8.1036C177.242 7.9236 177.899 7.8336 178.601 7.8336C179.735 7.8336 180.68 8.0316 181.436 8.4276C182.21 8.8236 182.885 9.3726 183.461 10.0746L182.03 11.3706C181.724 10.9386 181.274 10.5516 180.68 10.2096C180.086 9.8496 179.339 9.6696 178.439 9.6696C177.539 9.6696 176.855 9.8676 176.387 10.2636C175.937 10.6416 175.712 11.1636 175.712 11.8296C175.712 12.5136 175.937 13.0086 176.387 13.3146C176.855 13.6206 177.521 13.8456 178.385 13.9896L179.465 14.1516C181.013 14.3856 182.111 14.8356 182.759 15.5016C183.407 16.1496 183.731 17.0046 183.731 18.0666C183.731 19.4166 183.272 20.4786 182.354 21.2526C181.436 22.0266 180.176 22.4136 178.574 22.4136Z" fill="#B5F0E5" fill-opacity="0.5"/>
</svg>
