<svg width="358" height="83" viewBox="0 0 358 83" fill="none" xmlns="http://www.w3.org/2000/svg">
<path d="M87.1605 64.3437V5.07666H109.861C114.977 5.07666 118.907 6.59163 121.658 9.62157C124.409 12.6515 125.785 16.7948 125.785 22.0584C125.785 27.3221 124.409 31.4724 121.658 34.4953C118.907 37.5252 114.977 39.0402 109.861 39.0402H94.0181V64.3437H87.1605ZM94.0181 32.7548H109.861C112.585 32.7548 114.692 32.022 116.19 30.5493C117.687 29.0766 118.433 26.9838 118.433 24.2639V19.8459C118.433 17.126 117.681 15.0332 116.19 13.5605C114.692 12.0878 112.585 11.355 109.861 11.355H94.0181V32.7548Z" fill="#B5F0E5"/>
<path d="M135.169 64.3432V20.5288H141.701V28.5969H142.108C142.867 26.5041 144.229 24.6368 146.187 22.995C148.146 21.3532 150.843 20.5359 154.271 20.5359H156.806V27.3286H152.97C149.433 27.3286 146.668 28.0191 144.683 29.4072C142.698 30.7954 141.701 32.5358 141.701 34.6286V64.3432H135.169Z" fill="#B5F0E5"/>
<path d="M195.429 64.3432C192.983 64.3432 191.221 63.6668 190.164 62.3068C189.1 60.9469 188.436 59.2487 188.165 57.2123H187.758C186.83 59.9322 185.305 61.9686 183.184 63.3285C181.063 64.6885 178.529 65.3649 175.588 65.3649C171.123 65.3649 167.653 64.1741 165.18 61.7995C162.7 59.4248 161.467 56.1976 161.467 52.1178C161.467 48.0379 162.923 44.8177 165.837 42.6051C168.751 40.3996 173.278 39.2933 179.43 39.2933H187.758V34.9598C187.758 31.8453 186.938 29.4707 185.305 27.8289C183.672 26.1871 181.165 25.3697 177.791 25.3697C175.229 25.3697 173.095 25.9616 171.38 27.1524C169.666 28.3433 168.236 29.9287 167.091 31.9087L163.174 28.0896C164.319 25.715 166.142 23.6856 168.643 22.0156C171.143 20.3456 174.301 19.5142 178.116 19.5142C183.232 19.5142 187.209 20.8107 190.035 23.4108C192.868 26.0109 194.284 29.6257 194.284 34.2552V58.3186H199.102V64.3503H195.429V64.3432ZM176.652 59.5869C178.285 59.5869 179.783 59.3896 181.145 58.995C182.507 58.6004 183.679 58.0297 184.655 57.2968C185.637 56.564 186.396 55.7114 186.938 54.7531C187.481 53.7877 187.758 52.7449 187.758 51.6104V44.3949H179.105C175.351 44.3949 172.613 44.9586 170.899 46.0931C169.185 47.2276 168.324 48.8694 168.324 51.0185V52.8013C168.324 54.9504 169.069 56.6204 170.567 57.8112C172.065 59.0021 174.091 59.594 176.652 59.594V59.5869Z" fill="#B5F0E5"/>
<path d="M243.927 69.2276C243.927 73.7373 242.226 77.0561 238.825 79.17C235.423 81.2839 230.321 82.3409 223.517 82.3409C216.714 82.3409 212.194 81.4037 209.307 79.5435C206.421 77.6762 204.977 75.0197 204.977 71.574C204.977 69.1994 205.574 67.3462 206.773 66.0215C207.973 64.6897 209.606 63.7173 211.672 63.0972V62.1671C209.165 60.927 207.918 58.8976 207.918 56.0791C207.918 53.8806 208.596 52.2036 209.958 51.0479C211.32 49.8923 213.061 49.0327 215.182 48.469V48.1307C212.675 46.8835 210.73 45.0938 209.341 42.7685C207.952 40.4432 207.261 37.7444 207.261 34.6792C207.261 32.4667 207.64 30.4232 208.406 28.5489C209.165 26.6745 210.243 25.075 211.632 23.7362C213.021 22.4044 214.681 21.3686 216.612 20.6287C218.543 19.8889 220.705 19.5225 223.104 19.5225C226.099 19.5225 228.762 20.0862 231.107 21.2206V20.4596C231.107 18.7403 231.486 17.324 232.252 16.2036C233.011 15.0832 234.264 14.5195 236.006 14.5195H242.294V20.5512H234.291V23.3627C235.816 24.7297 237.002 26.3574 237.842 28.26C238.682 30.1625 239.109 32.3046 239.109 34.6863C239.109 36.8988 238.73 38.9423 237.964 40.8166C237.198 42.6909 236.128 44.2975 234.739 45.6293C233.35 46.961 231.676 47.9969 229.717 48.7367C227.759 49.4766 225.577 49.843 223.185 49.843C221.823 49.843 220.461 49.7021 219.106 49.4202C217.69 49.8148 216.409 50.3997 215.271 51.1607C214.125 51.9217 213.556 52.9857 213.556 54.3456C213.556 55.7056 214.152 56.523 215.352 56.981C216.551 57.432 218.103 57.6574 220.007 57.6574H228.986C234.21 57.6574 238.012 58.6862 240.376 60.7438C242.741 62.8013 243.927 65.6339 243.927 69.2487V69.2276ZM237.802 69.6927C237.802 67.9381 237.158 66.5359 235.884 65.493C234.603 64.4431 232.333 63.9217 229.067 63.9217H215.02C212.404 65.1689 211.103 67.1489 211.103 69.8688C211.103 71.7925 211.794 73.4343 213.183 74.7942C214.573 76.1542 216.924 76.8306 220.244 76.8306H226.289C229.934 76.8306 232.767 76.2387 234.779 75.0479C236.792 73.8571 237.802 72.0743 237.802 69.6997V69.6927ZM223.185 44.3891C225.963 44.3891 228.166 43.6915 229.799 42.3034C231.432 40.9082 232.252 38.7661 232.252 35.863V33.4743C232.252 30.5782 231.432 28.4291 229.799 27.0339C228.166 25.6387 225.963 24.9482 223.185 24.9482C220.407 24.9482 218.205 25.6458 216.572 27.0339C214.938 28.4291 214.119 30.5712 214.119 33.4743V35.863C214.119 38.7661 214.938 40.9082 216.572 42.3034C218.205 43.6986 220.407 44.3891 223.185 44.3891Z" fill="#B5F0E5"/>
<path d="M251.527 64.3432V20.5288H258.059V27.5823H258.384C258.872 26.4619 259.435 25.412 260.058 24.4325C260.682 23.4531 261.447 22.6005 262.342 21.8676C263.243 21.1419 264.287 20.5641 265.486 20.1413C266.685 19.7185 268.102 19.5142 269.735 19.5142C272.513 19.5142 275.068 20.2047 277.412 21.5787C279.75 22.9528 281.491 25.2147 282.637 28.3574H282.799C283.558 26.0039 284.988 23.9393 287.089 22.1706C289.182 20.402 292.028 19.5212 295.62 19.5212C299.923 19.5212 303.284 20.9798 305.703 23.897C308.122 26.8142 309.335 30.9293 309.335 36.2493V64.3503H302.803V37.3697C302.803 33.4589 302.071 30.5065 300.6 28.5194C299.13 26.5324 296.792 25.5388 293.58 25.5388C292.272 25.5388 291.032 25.7079 289.867 26.0532C288.694 26.3914 287.651 26.9058 286.723 27.5823C285.794 28.2658 285.062 29.1254 284.52 30.1753C283.978 31.2252 283.7 32.4584 283.7 33.8747V64.3362H277.168V37.3697C277.168 33.4589 276.436 30.5065 274.966 28.5194C273.495 26.5324 271.212 25.5388 268.108 25.5388C266.8 25.5388 265.547 25.7079 264.354 26.0532C263.155 26.3914 262.098 26.9058 261.169 27.5823C260.241 28.2658 259.496 29.1254 258.926 30.1753C258.357 31.2252 258.066 32.4584 258.066 33.8747V64.3362H251.534L251.527 64.3432Z" fill="#B5F0E5"/>
<path d="M353.426 64.3442C350.98 64.3442 349.218 63.6677 348.161 62.3078C347.097 60.9478 346.433 59.2497 346.162 57.2133H345.755C344.827 59.9332 343.302 61.9696 341.181 63.3295C339.06 64.6895 336.526 65.3659 333.585 65.3659C329.12 65.3659 325.65 64.1751 323.177 61.8005C320.697 59.4258 319.463 56.1986 319.463 52.1187C319.463 48.0389 320.92 44.8187 323.834 42.6061C326.748 40.4006 331.274 39.2943 337.427 39.2943H345.755V34.9608C345.755 31.8463 344.935 29.4717 343.302 27.8299C341.669 26.1881 339.162 25.3707 335.787 25.3707C333.226 25.3707 331.091 25.9626 329.377 27.1534C327.663 28.3442 326.233 29.9297 325.088 31.9097L321.171 28.0906C322.316 25.7159 324.139 23.6866 326.639 22.0166C329.14 20.3466 332.298 19.5151 336.113 19.5151C341.229 19.5151 345.206 20.8117 348.032 23.4118C350.864 26.0119 352.281 29.6267 352.281 34.2562V58.3195H357.099V64.3512H353.426V64.3442ZM334.649 59.5879C336.282 59.5879 337.78 59.3906 339.142 58.996C340.504 58.6014 341.676 58.0306 342.652 57.2978C343.634 56.565 344.393 55.7124 344.935 54.7541C345.477 53.7887 345.755 52.7459 345.755 51.6114V44.3959H337.102C333.348 44.3959 330.61 44.9596 328.896 46.0941C327.181 47.2285 326.321 48.8703 326.321 51.0195V52.8022C326.321 54.9514 327.066 56.6214 328.564 57.8122C330.061 59.003 332.087 59.5949 334.649 59.5949V59.5879Z" fill="#B5F0E5"/>
<path d="M59.1454 16.2637C59.7708 17.5509 60.1318 18.9922 60.1318 20.5275V51.6947C60.1318 56.9239 56.0444 61.1743 51.0157 61.1743H21.0369C19.5605 61.1743 18.1679 60.7989 16.9365 60.1486C18.4387 63.2391 21.5139 65.3643 25.0663 65.3643H55.0386C60.0673 65.3643 64.1548 61.1139 64.1548 55.8848V24.7175C64.1548 21.0236 62.1111 17.8257 59.139 16.2637H59.1454Z" fill="#B5F0E5"/>
<path d="M47.1795 57.6077C52.2082 57.6077 56.2956 53.3573 56.2956 48.1282V16.9542C56.2956 16.3911 56.2376 15.848 56.1474 15.3117C55.9411 14.105 55.522 12.9787 54.9224 11.9731C54.0392 10.4915 52.782 9.28473 51.2798 8.49365C51.6795 9.31155 51.9632 10.1898 52.1179 11.1217C52.2082 11.658 52.2662 12.201 52.2662 12.7641V43.9314C52.2662 49.1606 48.1788 53.411 43.1501 53.411H13.1777C12.8038 53.411 12.4299 53.3774 12.0688 53.3305C11.0051 53.1964 9.99932 52.8679 9.07739 52.3852C9.98643 54.2557 11.4757 55.7641 13.2938 56.6691C14.1641 57.0982 15.1054 57.3932 16.0982 57.5206C16.4657 57.5675 16.8332 57.601 17.2071 57.601H47.1795V57.6077Z" fill="#B5F0E5"/>
<path d="M11.9206 50.1331H39.095C44.1237 50.1331 48.2111 45.8827 48.2111 40.6535V9.47956C48.2111 8.80916 48.1402 8.15216 48.0112 7.51527C47.7469 6.20127 47.2118 4.99454 46.4833 3.9487C44.8264 1.56205 42.138 0 39.095 0H9.11614C4.08743 0 0 4.25038 0 9.47956V40.6535C0 44.6559 2.40475 48.0816 5.78946 49.4694C6.576 49.7912 7.41412 50.0057 8.29092 50.0862C8.56169 50.113 8.83892 50.1331 9.12259 50.1331H11.9271H11.9206ZM42.8665 40.6535C42.8665 42.8189 41.1709 44.5821 39.0885 44.5821H20.3727V30.8119C20.3727 25.5828 24.4601 21.3324 29.4888 21.3324H42.8665V40.6535ZM42.8665 17.1423H25.4594C20.4307 17.1423 16.3433 21.3927 16.3433 26.6219V44.5821H12.5137V23.0486C12.5137 17.8194 16.6012 13.5691 21.6299 13.5691H42.8665V17.1423ZM8.09106 44.4279C6.50508 43.9586 5.34461 42.4502 5.34461 40.6535V9.47956C5.34461 7.31415 7.04019 5.55098 9.12259 5.55098H39.095C40.4746 5.55098 41.6738 6.32194 42.3378 7.46834C42.6602 8.03148 42.8536 8.67507 42.8665 9.3723H17.6005C12.5718 9.3723 8.48433 13.6227 8.48433 18.8519V44.5084C8.34894 44.4815 8.22 44.4547 8.09106 44.4145V44.4279Z" fill="#B5F0E5"/>
</svg>
