<svg width="525" height="441" viewBox="0 0 525 441" fill="none" xmlns="http://www.w3.org/2000/svg">
<path d="M535.434 395.488C632.122 395.488 710.503 317.106 710.503 220.418C710.503 123.73 632.122 45.3489 535.434 45.3489C438.746 45.3489 360.364 123.73 360.364 220.418C360.364 317.106 438.746 395.488 535.434 395.488Z" stroke="#B5F0E5" stroke-opacity="0.5" stroke-width="0.5" stroke-miterlimit="10"/>
<path d="M618.881 220.418C618.881 174.33 581.52 136.968 535.432 136.968C489.344 136.968 451.983 174.33 451.983 220.418C451.983 266.505 489.344 303.867 535.432 303.867C581.52 303.867 618.881 266.505 618.881 220.418Z" stroke="#B5F0E5" stroke-opacity="0.5" stroke-width="0.5" stroke-miterlimit="10"/>
<path d="M535.433 512.204C696.582 512.204 827.219 381.567 827.219 220.418C827.219 59.2686 696.582 -71.3687 535.433 -71.3687C374.284 -71.3687 243.646 59.2686 243.646 220.418C243.646 381.567 374.284 512.204 535.433 512.204Z" stroke="#B5F0E5" stroke-opacity="0.5" stroke-width="0.5" stroke-miterlimit="10"/>
<path d="M535.434 628.91C761.038 628.91 943.925 446.022 943.925 220.419C943.925 -5.18473 761.038 -188.072 535.434 -188.072C309.831 -188.072 126.943 -5.18473 126.943 220.419C126.943 446.022 309.831 628.91 535.434 628.91Z" stroke="#B5F0E5" stroke-opacity="0.5" stroke-width="0.5" stroke-miterlimit="10"/>
<path d="M535.434 745.626C825.498 745.626 1060.64 510.482 1060.64 220.418C1060.64 -69.6467 825.498 -304.79 535.434 -304.79C245.369 -304.79 10.2256 -69.6467 10.2256 220.418C10.2256 510.482 245.369 745.626 535.434 745.626Z" stroke="#B5F0E5" stroke-opacity="0.5" stroke-width="0.5" stroke-miterlimit="10"/>
<g filter="url(#filter0_d_1132_6098)">
<rect x="437.106" y="60.573" width="21.852" height="21.852" rx="10.926" fill="#15FF81"/>
<rect x="437.356" y="60.823" width="21.352" height="21.352" rx="10.676" stroke="#B5F0E5" stroke-opacity="0.5" stroke-width="0.5"/>
</g>
<g filter="url(#filter1_d_1132_6098)">
<rect x="14.2695" y="335.908" width="21.852" height="21.852" rx="10.926" fill="#15FF81"/>
<rect x="14.5195" y="336.158" width="21.352" height="21.352" rx="10.676" stroke="#B5F0E5" stroke-opacity="0.5" stroke-width="0.5"/>
</g>
<g filter="url(#filter2_d_1132_6098)">
<rect x="301.624" y="398.186" width="21.852" height="21.852" rx="10.926" fill="#15FF81"/>
<rect x="301.874" y="398.436" width="21.352" height="21.352" rx="10.676" stroke="#B5F0E5" stroke-opacity="0.5" stroke-width="0.5"/>
</g>
<defs>
<filter id="filter0_d_1132_6098" x="423.106" y="46.573" width="49.8521" height="49.852" filterUnits="userSpaceOnUse" color-interpolation-filters="sRGB">
<feFlood flood-opacity="0" result="BackgroundImageFix"/>
<feColorMatrix in="SourceAlpha" type="matrix" values="0 0 0 0 0 0 0 0 0 0 0 0 0 0 0 0 0 0 127 0" result="hardAlpha"/>
<feOffset/>
<feGaussianBlur stdDeviation="7"/>
<feComposite in2="hardAlpha" operator="out"/>
<feColorMatrix type="matrix" values="0 0 0 0 0.235294 0 0 0 0 0.956863 0 0 0 0 0.403922 0 0 0 0.8 0"/>
<feBlend mode="normal" in2="BackgroundImageFix" result="effect1_dropShadow_1132_6098"/>
<feBlend mode="normal" in="SourceGraphic" in2="effect1_dropShadow_1132_6098" result="shape"/>
</filter>
<filter id="filter1_d_1132_6098" x="0.269531" y="321.908" width="49.8521" height="49.852" filterUnits="userSpaceOnUse" color-interpolation-filters="sRGB">
<feFlood flood-opacity="0" result="BackgroundImageFix"/>
<feColorMatrix in="SourceAlpha" type="matrix" values="0 0 0 0 0 0 0 0 0 0 0 0 0 0 0 0 0 0 127 0" result="hardAlpha"/>
<feOffset/>
<feGaussianBlur stdDeviation="7"/>
<feComposite in2="hardAlpha" operator="out"/>
<feColorMatrix type="matrix" values="0 0 0 0 0.235294 0 0 0 0 0.956863 0 0 0 0 0.403922 0 0 0 0.8 0"/>
<feBlend mode="normal" in2="BackgroundImageFix" result="effect1_dropShadow_1132_6098"/>
<feBlend mode="normal" in="SourceGraphic" in2="effect1_dropShadow_1132_6098" result="shape"/>
</filter>
<filter id="filter2_d_1132_6098" x="287.624" y="384.186" width="49.8521" height="49.852" filterUnits="userSpaceOnUse" color-interpolation-filters="sRGB">
<feFlood flood-opacity="0" result="BackgroundImageFix"/>
<feColorMatrix in="SourceAlpha" type="matrix" values="0 0 0 0 0 0 0 0 0 0 0 0 0 0 0 0 0 0 127 0" result="hardAlpha"/>
<feOffset/>
<feGaussianBlur stdDeviation="7"/>
<feComposite in2="hardAlpha" operator="out"/>
<feColorMatrix type="matrix" values="0 0 0 0 0.235294 0 0 0 0 0.956863 0 0 0 0 0.403922 0 0 0 0.8 0"/>
<feBlend mode="normal" in2="BackgroundImageFix" result="effect1_dropShadow_1132_6098"/>
<feBlend mode="normal" in="SourceGraphic" in2="effect1_dropShadow_1132_6098" result="shape"/>
</filter>
</defs>
</svg>
